<svg xmlns="http://www.w3.org/2000/svg" xmlns:xlink="http://www.w3.org/1999/xlink" width="700" zoomAndPan="magnify" viewBox="0 0 525 525.000007" height="700" preserveAspectRatio="xMidYMid meet" version="1.0"><defs><clipPath id="35f3339faf"><path d="M 0.5 0 L 524.5 0 L 524.5 524 L 0.5 524 Z M 0.5 0 " clip-rule="nonzero"/></clipPath><clipPath id="bce280ed7c"><path d="M 272 348 L 289 348 L 289 413.40625 L 272 413.40625 Z M 272 348 " clip-rule="nonzero"/></clipPath><clipPath id="374ed029f1"><path d="M 92 120 L 433.59375 120 L 433.59375 413.40625 L 92 413.40625 Z M 92 120 " clip-rule="nonzero"/></clipPath></defs><g clip-path="url(#35f3339faf)"><path fill="#ffffff" d="M 0.5 0 L 524.5 0 L 524.5 524 L 0.5 524 Z M 0.5 0 " fill-opacity="1" fill-rule="nonzero"/><path fill="#ffffff" d="M 0.5 0 L 524.5 0 L 524.5 524 L 0.5 524 Z M 0.5 0 " fill-opacity="1" fill-rule="nonzero"/></g><g clip-path="url(#bce280ed7c)"><path fill="#000000" d="M 281.992188 348.152344 C 281.195312 351.347656 279.863281 354.273438 278.796875 357.199219 C 274.535156 367.84375 270.269531 378.75 273.46875 408.546875 C 273.734375 411.207031 276.132812 413.335938 278.796875 413.335938 C 279.0625 413.335938 279.0625 413.335938 279.328125 413.335938 C 282.261719 413.070312 284.390625 410.410156 284.125 407.484375 C 281.460938 381.941406 284.390625 372.097656 288.121094 362.785156 C 285.457031 358.265625 283.324219 353.210938 281.992188 348.152344 Z M 281.992188 348.152344 " fill-opacity="1" fill-rule="nonzero"/></g><g clip-path="url(#374ed029f1)"><path fill="#000000" d="M 92.292969 180.808594 C 93.09375 196.769531 98.957031 218.054688 121.867188 229.230469 C 145.316406 240.667969 160.234375 236.679688 168.761719 231.359375 C 175.953125 226.835938 179.152344 218.054688 176.753906 209.808594 C 174.621094 203.421875 170.359375 198.367188 164.230469 195.707031 C 155.972656 191.980469 145.046875 192.515625 131.992188 197.304688 C 123.46875 186.925781 122.402344 171.496094 130.128906 161.917969 C 141.050781 148.617188 164.765625 152.339844 193.273438 171.761719 C 193.273438 171.761719 193.539062 171.761719 193.539062 172.027344 C 193.539062 172.027344 193.804688 172.292969 193.804688 172.292969 C 194.070312 172.558594 194.605469 172.558594 194.871094 172.828125 C 194.339844 186.128906 193.539062 231.625 206.59375 243.328125 C 209.257812 245.722656 211.390625 247.851562 213.253906 250.246094 C 218.050781 256.898438 223.378906 267.539062 222.046875 280.3125 C 220.183594 300.53125 217.515625 328.199219 235.101562 335.382812 C 235.636719 347.355469 238.300781 354.273438 240.964844 361.191406 C 244.960938 371.035156 248.421875 380.347656 245.492188 407.484375 C 245.226562 410.410156 247.359375 413.070312 250.289062 413.335938 C 250.554688 413.335938 250.554688 413.335938 250.820312 413.335938 C 253.484375 413.335938 255.882812 411.207031 256.148438 408.546875 C 259.347656 378.75 255.085938 367.839844 250.820312 357.199219 C 248.421875 351.347656 246.292969 345.757812 245.757812 336.183594 L 257.480469 336.183594 C 260.414062 336.183594 262.8125 333.789062 262.8125 330.859375 L 262.8125 260.355469 C 262.8125 259.027344 262.542969 245.722656 239.097656 221.515625 C 239.097656 221.515625 239.097656 221.515625 238.832031 221.246094 C 238.832031 221.246094 232.96875 215.394531 233.503906 197.304688 C 233.503906 190.121094 231.90625 183.203125 228.707031 177.082031 C 225.242188 170.964844 218.582031 169.101562 211.65625 166.972656 C 207.660156 165.910156 203.398438 164.578125 198.867188 162.449219 C 149.578125 129.195312 127.464844 148.617188 121.867188 155.265625 C 109.878906 169.898438 112.011719 193.046875 126.664062 207.414062 C 126.664062 207.414062 126.929688 207.679688 127.195312 207.679688 C 127.730469 208.210938 128.527344 208.476562 129.328125 208.742188 C 129.328125 208.742188 129.59375 208.742188 129.59375 208.742188 C 129.863281 208.742188 129.863281 208.742188 130.128906 208.742188 C 130.660156 208.742188 130.925781 208.742188 131.460938 208.742188 C 131.460938 208.742188 131.726562 208.742188 131.726562 208.742188 C 131.726562 208.742188 131.992188 208.742188 131.992188 208.742188 C 132.257812 208.742188 132.527344 208.742188 132.792969 208.476562 C 144.515625 203.421875 153.839844 202.359375 159.96875 205.285156 C 164.230469 207.148438 166.097656 210.605469 166.628906 213 C 167.695312 216.457031 166.363281 220.449219 163.164062 222.3125 C 157.039062 226.300781 145.582031 228.964844 126.398438 219.652344 C 108.28125 210.871094 103.75 193.3125 102.953125 180.277344 C 102.417969 168.039062 106.949219 156.332031 115.207031 147.816406 C 129.328125 133.71875 146.648438 129.726562 167.160156 135.84375 C 172.222656 137.441406 177.550781 139.835938 184.214844 144.09375 C 190.609375 147.816406 204.460938 152.605469 227.109375 141.167969 C 227.375 140.898438 227.640625 140.898438 227.910156 140.632812 C 228.175781 140.367188 253.753906 121.480469 290.785156 138.507812 C 293.984375 140.101562 297.445312 141.964844 301.445312 144.890625 C 307.039062 148.882812 322.757812 156.863281 345.9375 144.890625 C 346.203125 144.890625 346.46875 144.625 346.46875 144.625 C 346.738281 144.359375 374.445312 124.9375 399.492188 138.773438 C 411.746094 145.6875 421.871094 161.386719 422.136719 174.421875 C 422.671875 189.855469 419.472656 202.359375 401.886719 216.191406 C 382.4375 231.625 369.648438 227.632812 363.789062 223.910156 C 359.792969 221.515625 357.925781 216.191406 359.527344 211.402344 C 360.058594 209.277344 361.65625 206.613281 365.386719 204.753906 C 369.648438 202.890625 378.175781 201.824219 393.628906 208.742188 C 393.894531 208.742188 393.894531 208.742188 394.160156 209.007812 C 394.429688 209.007812 394.429688 209.007812 394.695312 209.277344 C 394.695312 209.277344 394.960938 209.277344 394.960938 209.277344 C 395.226562 209.277344 395.492188 209.277344 395.492188 209.277344 C 395.492188 209.277344 395.761719 209.277344 395.761719 209.277344 C 396.027344 209.277344 396.027344 209.277344 396.292969 209.277344 C 396.558594 209.277344 396.558594 209.277344 396.824219 209.277344 C 397.09375 209.277344 397.09375 209.277344 397.359375 209.007812 C 397.625 209.007812 397.625 208.742188 397.890625 208.742188 C 398.15625 208.742188 398.15625 208.476562 398.425781 208.476562 C 398.425781 208.476562 398.691406 208.210938 398.691406 208.210938 C 398.957031 207.945312 398.957031 207.945312 399.222656 207.679688 C 413.878906 193.3125 416.007812 169.898438 404.019531 155.53125 C 398.425781 148.882812 376.578125 129.460938 327.019531 163.25 C 324.890625 164.3125 323.023438 165.109375 321.160156 165.910156 C 312.367188 169.898438 305.707031 173.09375 301.710938 180.277344 C 298.246094 186.394531 296.648438 193.3125 296.914062 200.496094 C 297.179688 215.660156 293.183594 220.183594 292.382812 220.980469 C 291.851562 221.246094 291.851562 221.246094 291.320312 222.046875 C 267.871094 245.992188 267.339844 259.292969 267.605469 260.625 L 267.605469 330.859375 C 267.605469 333.789062 270.003906 336.183594 272.933594 336.183594 L 279.328125 336.183594 C 279.0625 334.054688 279.0625 331.660156 279.0625 329.53125 C 279.0625 328.199219 279.0625 326.871094 279.0625 325.539062 L 278.796875 325.539062 L 278.796875 260.355469 C 278.796875 260.355469 279.597656 249.714844 299.3125 229.496094 C 302.242188 227.367188 308.636719 220.449219 308.371094 199.964844 C 308.371094 194.644531 309.4375 189.585938 312.101562 185.066406 C 314.230469 181.339844 317.695312 179.476562 325.421875 175.753906 C 326.222656 198.632812 324.089844 229.230469 317.429688 235.347656 C 314.5 238.007812 311.566406 240.667969 309.171875 244.128906 C 303.308594 252.375 296.914062 265.414062 298.511719 281.375 C 298.511719 281.640625 298.511719 281.90625 298.511719 282.171875 C 301.710938 278.714844 305.171875 275.789062 308.902344 273.128906 C 309.703125 263.550781 313.964844 255.566406 317.695312 250.246094 C 319.292969 247.851562 321.691406 245.722656 324.355469 243.328125 C 337.679688 231.359375 336.347656 183.203125 335.8125 170.433594 C 363.253906 152.339844 385.902344 149.148438 396.558594 162.183594 C 404.285156 171.496094 403.21875 186.925781 394.695312 197.570312 C 381.105469 192.25 369.917969 191.449219 361.390625 195.175781 C 355.796875 197.835938 351.53125 202.359375 349.667969 208.210938 C 346.738281 217.523438 350.199219 227.632812 358.460938 232.953125 C 362.457031 235.347656 368.585938 238.007812 376.3125 238.007812 C 385.101562 238.007812 396.027344 234.816406 409.082031 224.441406 C 431.195312 206.882812 433.59375 189.855469 433.328125 174.15625 C 432.792969 156.863281 420.804688 138.238281 405.085938 129.460938 C 375.511719 113.230469 344.605469 133.183594 340.875 135.578125 C 323.824219 144.359375 312.898438 139.835938 307.839844 136.113281 C 303.308594 132.917969 299.3125 130.523438 295.316406 128.660156 C 254.816406 110.304688 225.777344 128.929688 222.046875 131.589844 C 204.460938 140.632812 194.339844 137.441406 189.808594 134.78125 C 182.347656 130.257812 176.21875 127.332031 170.09375 125.46875 C 139.71875 116.15625 119.203125 128.394531 107.480469 140.101562 C 97.089844 150.746094 91.496094 165.644531 92.292969 180.808594 Z M 205.527344 176.816406 C 206.59375 177.082031 207.660156 177.347656 208.726562 177.617188 C 214.585938 179.210938 218.050781 180.277344 219.382812 182.40625 C 221.78125 186.925781 223.113281 191.980469 223.113281 197.304688 C 222.578125 219.121094 230.304688 227.367188 231.90625 228.964844 C 251.886719 249.449219 252.6875 260.089844 252.6875 260.089844 L 252.6875 325.539062 L 239.363281 325.539062 C 230.039062 321.28125 231.105469 300.53125 233.238281 281.375 C 234.835938 265.414062 228.175781 252.375 222.578125 244.128906 C 220.183594 240.667969 217.25 238.007812 214.320312 235.347656 C 206.859375 229.230469 204.996094 199.164062 205.527344 176.816406 Z M 205.527344 176.816406 " fill-opacity="1" fill-rule="nonzero"/></g><path fill="#000000" d="M 138.386719 216.191406 C 138.386719 216.546875 138.320312 216.886719 138.183594 217.210938 C 138.050781 217.535156 137.855469 217.824219 137.605469 218.074219 C 137.355469 218.324219 137.070312 218.515625 136.742188 218.652344 C 136.417969 218.785156 136.078125 218.851562 135.722656 218.851562 C 135.371094 218.851562 135.03125 218.785156 134.703125 218.652344 C 134.375 218.515625 134.089844 218.324219 133.839844 218.074219 C 133.589844 217.824219 133.398438 217.535156 133.261719 217.210938 C 133.125 216.886719 133.058594 216.546875 133.058594 216.191406 C 133.058594 215.839844 133.125 215.5 133.261719 215.175781 C 133.398438 214.847656 133.589844 214.5625 133.839844 214.3125 C 134.089844 214.0625 134.375 213.871094 134.703125 213.734375 C 135.03125 213.601562 135.371094 213.53125 135.722656 213.53125 C 136.078125 213.53125 136.417969 213.601562 136.742188 213.734375 C 137.070312 213.871094 137.355469 214.0625 137.605469 214.3125 C 137.855469 214.5625 138.050781 214.847656 138.183594 215.175781 C 138.320312 215.5 138.386719 215.839844 138.386719 216.191406 Z M 138.386719 216.191406 " fill-opacity="1" fill-rule="nonzero"/><path fill="#000000" d="M 148.246094 210.074219 C 148.246094 210.425781 148.175781 210.765625 148.042969 211.089844 C 147.90625 211.417969 147.714844 211.707031 147.464844 211.953125 C 147.214844 212.203125 146.925781 212.398438 146.601562 212.53125 C 146.273438 212.667969 145.933594 212.734375 145.582031 212.734375 C 145.226562 212.734375 144.886719 212.667969 144.5625 212.53125 C 144.234375 212.398438 143.945312 212.203125 143.695312 211.953125 C 143.445312 211.707031 143.253906 211.417969 143.121094 211.089844 C 142.984375 210.765625 142.917969 210.425781 142.917969 210.074219 C 142.917969 209.722656 142.984375 209.382812 143.121094 209.054688 C 143.253906 208.730469 143.445312 208.441406 143.695312 208.191406 C 143.945312 207.941406 144.234375 207.75 144.5625 207.617188 C 144.886719 207.480469 145.226562 207.414062 145.582031 207.414062 C 145.933594 207.414062 146.273438 207.480469 146.601562 207.617188 C 146.925781 207.75 147.214844 207.941406 147.464844 208.191406 C 147.714844 208.441406 147.90625 208.730469 148.042969 209.054688 C 148.175781 209.382812 148.246094 209.722656 148.246094 210.074219 Z M 148.246094 210.074219 " fill-opacity="1" fill-rule="nonzero"/><path fill="#000000" d="M 158.636719 210.074219 C 158.636719 210.425781 158.570312 210.765625 158.433594 211.089844 C 158.296875 211.417969 158.105469 211.707031 157.855469 211.953125 C 157.605469 212.203125 157.316406 212.398438 156.992188 212.53125 C 156.664062 212.667969 156.324219 212.734375 155.972656 212.734375 C 155.617188 212.734375 155.277344 212.667969 154.953125 212.53125 C 154.625 212.398438 154.335938 212.203125 154.085938 211.953125 C 153.839844 211.707031 153.644531 211.417969 153.511719 211.089844 C 153.375 210.765625 153.308594 210.425781 153.308594 210.074219 C 153.308594 209.722656 153.375 209.382812 153.511719 209.054688 C 153.644531 208.730469 153.839844 208.441406 154.085938 208.191406 C 154.335938 207.941406 154.625 207.75 154.953125 207.617188 C 155.277344 207.480469 155.617188 207.414062 155.972656 207.414062 C 156.324219 207.414062 156.664062 207.480469 156.992188 207.617188 C 157.316406 207.75 157.605469 207.941406 157.855469 208.191406 C 158.105469 208.441406 158.296875 208.730469 158.433594 209.054688 C 158.570312 209.382812 158.636719 209.722656 158.636719 210.074219 Z M 158.636719 210.074219 " fill-opacity="1" fill-rule="nonzero"/><path fill="#000000" d="M 161.300781 218.851562 C 161.300781 219.207031 161.234375 219.546875 161.097656 219.871094 C 160.960938 220.199219 160.769531 220.484375 160.519531 220.734375 C 160.269531 220.984375 159.980469 221.175781 159.65625 221.3125 C 159.328125 221.445312 158.988281 221.515625 158.636719 221.515625 C 158.28125 221.515625 157.941406 221.445312 157.617188 221.3125 C 157.289062 221.175781 157 220.984375 156.753906 220.734375 C 156.503906 220.484375 156.308594 220.199219 156.175781 219.871094 C 156.039062 219.546875 155.972656 219.207031 155.972656 218.851562 C 155.972656 218.5 156.039062 218.160156 156.175781 217.835938 C 156.308594 217.507812 156.503906 217.222656 156.753906 216.972656 C 157 216.722656 157.289062 216.53125 157.617188 216.394531 C 157.941406 216.261719 158.28125 216.191406 158.636719 216.191406 C 158.988281 216.191406 159.328125 216.261719 159.65625 216.394531 C 159.980469 216.53125 160.269531 216.722656 160.519531 216.972656 C 160.769531 217.222656 160.960938 217.507812 161.097656 217.835938 C 161.234375 218.160156 161.300781 218.5 161.300781 218.851562 Z M 161.300781 218.851562 " fill-opacity="1" fill-rule="nonzero"/><path fill="#000000" d="M 150.910156 218.851562 C 150.910156 219.207031 150.84375 219.546875 150.707031 219.871094 C 150.570312 220.199219 150.378906 220.484375 150.128906 220.734375 C 149.878906 220.984375 149.589844 221.175781 149.265625 221.3125 C 148.9375 221.445312 148.597656 221.515625 148.246094 221.515625 C 147.890625 221.515625 147.550781 221.445312 147.226562 221.3125 C 146.898438 221.175781 146.609375 220.984375 146.359375 220.734375 C 146.113281 220.484375 145.917969 220.199219 145.785156 219.871094 C 145.648438 219.546875 145.582031 219.207031 145.582031 218.851562 C 145.582031 218.5 145.648438 218.160156 145.785156 217.835938 C 145.917969 217.507812 146.113281 217.222656 146.359375 216.972656 C 146.609375 216.722656 146.898438 216.53125 147.226562 216.394531 C 147.550781 216.261719 147.890625 216.191406 148.246094 216.191406 C 148.597656 216.191406 148.9375 216.261719 149.265625 216.394531 C 149.589844 216.53125 149.878906 216.722656 150.128906 216.972656 C 150.378906 217.222656 150.570312 217.507812 150.707031 217.835938 C 150.84375 218.160156 150.910156 218.5 150.910156 218.851562 Z M 150.910156 218.851562 " fill-opacity="1" fill-rule="nonzero"/><path fill="#000000" d="M 393.097656 216.191406 C 393.097656 216.546875 393.027344 216.886719 392.894531 217.210938 C 392.757812 217.535156 392.566406 217.824219 392.316406 218.074219 C 392.066406 218.324219 391.777344 218.515625 391.453125 218.652344 C 391.125 218.785156 390.785156 218.851562 390.433594 218.851562 C 390.078125 218.851562 389.738281 218.785156 389.410156 218.652344 C 389.085938 218.515625 388.796875 218.324219 388.546875 218.074219 C 388.296875 217.824219 388.105469 217.535156 387.96875 217.210938 C 387.835938 216.886719 387.765625 216.546875 387.765625 216.191406 C 387.765625 215.839844 387.835938 215.5 387.96875 215.175781 C 388.105469 214.847656 388.296875 214.5625 388.546875 214.3125 C 388.796875 214.0625 389.085938 213.871094 389.410156 213.734375 C 389.738281 213.601562 390.078125 213.53125 390.433594 213.53125 C 390.785156 213.53125 391.125 213.601562 391.453125 213.734375 C 391.777344 213.871094 392.066406 214.0625 392.316406 214.3125 C 392.566406 214.5625 392.757812 214.847656 392.894531 215.175781 C 393.027344 215.5 393.097656 215.839844 393.097656 216.191406 Z M 393.097656 216.191406 " fill-opacity="1" fill-rule="nonzero"/><path fill="#000000" d="M 383.238281 210.074219 C 383.238281 210.425781 383.171875 210.765625 383.035156 211.089844 C 382.898438 211.417969 382.707031 211.707031 382.457031 211.953125 C 382.207031 212.203125 381.917969 212.398438 381.59375 212.53125 C 381.265625 212.667969 380.925781 212.734375 380.574219 212.734375 C 380.21875 212.734375 379.878906 212.667969 379.554688 212.53125 C 379.226562 212.398438 378.941406 212.203125 378.691406 211.953125 C 378.441406 211.707031 378.246094 211.417969 378.113281 211.089844 C 377.976562 210.765625 377.910156 210.425781 377.910156 210.074219 C 377.910156 209.722656 377.976562 209.382812 378.113281 209.054688 C 378.246094 208.730469 378.441406 208.441406 378.691406 208.191406 C 378.941406 207.941406 379.226562 207.75 379.554688 207.617188 C 379.878906 207.480469 380.21875 207.414062 380.574219 207.414062 C 380.925781 207.414062 381.265625 207.480469 381.59375 207.617188 C 381.917969 207.75 382.207031 207.941406 382.457031 208.191406 C 382.707031 208.441406 382.898438 208.730469 383.035156 209.054688 C 383.171875 209.382812 383.238281 209.722656 383.238281 210.074219 Z M 383.238281 210.074219 " fill-opacity="1" fill-rule="nonzero"/><path fill="#000000" d="M 372.847656 210.074219 C 372.847656 210.425781 372.78125 210.765625 372.644531 211.089844 C 372.507812 211.417969 372.316406 211.707031 372.066406 211.953125 C 371.816406 212.203125 371.527344 212.398438 371.203125 212.53125 C 370.875 212.667969 370.535156 212.734375 370.183594 212.734375 C 369.828125 212.734375 369.488281 212.667969 369.164062 212.53125 C 368.835938 212.398438 368.546875 212.203125 368.300781 211.953125 C 368.050781 211.707031 367.855469 211.417969 367.722656 211.089844 C 367.585938 210.765625 367.519531 210.425781 367.519531 210.074219 C 367.519531 209.722656 367.585938 209.382812 367.722656 209.054688 C 367.855469 208.730469 368.050781 208.441406 368.300781 208.191406 C 368.546875 207.941406 368.835938 207.75 369.164062 207.617188 C 369.488281 207.480469 369.828125 207.414062 370.183594 207.414062 C 370.535156 207.414062 370.875 207.480469 371.203125 207.617188 C 371.527344 207.75 371.816406 207.941406 372.066406 208.191406 C 372.316406 208.441406 372.507812 208.730469 372.644531 209.054688 C 372.78125 209.382812 372.847656 209.722656 372.847656 210.074219 Z M 372.847656 210.074219 " fill-opacity="1" fill-rule="nonzero"/><path fill="#000000" d="M 370.183594 218.851562 C 370.183594 219.207031 370.117188 219.546875 369.980469 219.871094 C 369.84375 220.199219 369.652344 220.484375 369.402344 220.734375 C 369.152344 220.984375 368.863281 221.175781 368.539062 221.3125 C 368.210938 221.445312 367.871094 221.515625 367.519531 221.515625 C 367.164062 221.515625 366.824219 221.445312 366.5 221.3125 C 366.171875 221.175781 365.882812 220.984375 365.632812 220.734375 C 365.386719 220.484375 365.191406 220.199219 365.058594 219.871094 C 364.921875 219.546875 364.855469 219.207031 364.855469 218.851562 C 364.855469 218.5 364.921875 218.160156 365.058594 217.835938 C 365.191406 217.507812 365.386719 217.222656 365.632812 216.972656 C 365.882812 216.722656 366.171875 216.53125 366.5 216.394531 C 366.824219 216.261719 367.164062 216.191406 367.519531 216.191406 C 367.871094 216.191406 368.210938 216.261719 368.539062 216.394531 C 368.863281 216.53125 369.152344 216.722656 369.402344 216.972656 C 369.652344 217.222656 369.84375 217.507812 369.980469 217.835938 C 370.117188 218.160156 370.183594 218.5 370.183594 218.851562 Z M 370.183594 218.851562 " fill-opacity="1" fill-rule="nonzero"/><path fill="#000000" d="M 380.574219 218.851562 C 380.574219 219.207031 380.507812 219.546875 380.371094 219.871094 C 380.234375 220.199219 380.042969 220.484375 379.792969 220.734375 C 379.542969 220.984375 379.253906 221.175781 378.929688 221.3125 C 378.601562 221.445312 378.261719 221.515625 377.910156 221.515625 C 377.554688 221.515625 377.214844 221.445312 376.890625 221.3125 C 376.5625 221.175781 376.273438 220.984375 376.027344 220.734375 C 375.777344 220.484375 375.582031 220.199219 375.449219 219.871094 C 375.3125 219.546875 375.246094 219.207031 375.246094 218.851562 C 375.246094 218.5 375.3125 218.160156 375.449219 217.835938 C 375.582031 217.507812 375.777344 217.222656 376.027344 216.972656 C 376.273438 216.722656 376.5625 216.53125 376.890625 216.394531 C 377.214844 216.261719 377.554688 216.191406 377.910156 216.191406 C 378.261719 216.191406 378.601562 216.261719 378.929688 216.394531 C 379.253906 216.53125 379.542969 216.722656 379.792969 216.972656 C 380.042969 217.222656 380.234375 217.507812 380.371094 217.835938 C 380.507812 218.160156 380.574219 218.5 380.574219 218.851562 Z M 380.574219 218.851562 " fill-opacity="1" fill-rule="nonzero"/><path fill="#000000" d="M 290.253906 329.53125 C 290.253906 361.722656 316.628906 388.0625 348.867188 388.0625 C 381.105469 388.0625 407.484375 361.722656 407.484375 329.53125 C 407.484375 297.339844 381.105469 271 348.867188 271 C 316.628906 271 290.253906 297.339844 290.253906 329.53125 Z M 396.824219 329.53125 C 396.824219 355.871094 375.246094 377.417969 348.867188 377.417969 C 322.492188 377.417969 300.910156 355.871094 300.910156 329.53125 C 300.910156 303.191406 322.492188 281.640625 348.867188 281.640625 C 375.246094 281.640625 396.824219 303.191406 396.824219 329.53125 Z M 396.824219 329.53125 " fill-opacity="1" fill-rule="nonzero"/><path fill="#000000" d="M 332.882812 302.925781 L 332.882812 313.566406 L 322.226562 313.566406 C 316.363281 313.566406 311.566406 318.355469 311.566406 324.210938 L 311.566406 334.851562 C 311.566406 340.703125 316.363281 345.492188 322.226562 345.492188 L 332.882812 345.492188 L 332.882812 356.136719 C 332.882812 361.988281 337.679688 366.777344 343.539062 366.777344 L 354.195312 366.777344 C 360.058594 366.777344 364.855469 361.988281 364.855469 356.136719 L 364.855469 345.492188 L 375.511719 345.492188 C 381.371094 345.492188 386.167969 340.703125 386.167969 334.851562 L 386.167969 324.210938 C 386.167969 318.355469 381.371094 313.566406 375.511719 313.566406 L 364.855469 313.566406 L 364.855469 302.925781 C 364.855469 297.074219 360.058594 292.285156 354.195312 292.285156 L 343.539062 292.285156 C 337.410156 292.285156 332.882812 297.074219 332.882812 302.925781 Z M 359.527344 324.210938 L 375.511719 324.210938 L 375.511719 334.851562 L 359.527344 334.851562 C 356.59375 334.851562 354.195312 337.246094 354.195312 340.171875 L 354.195312 356.136719 L 343.539062 356.136719 L 343.539062 340.171875 C 343.539062 337.246094 341.140625 334.851562 338.210938 334.851562 L 322.226562 334.851562 L 322.226562 324.210938 L 338.210938 324.210938 C 341.140625 324.210938 343.539062 321.816406 343.539062 318.886719 L 343.539062 302.925781 L 354.195312 302.925781 L 354.195312 318.886719 C 354.195312 321.816406 356.328125 324.210938 359.527344 324.210938 Z M 359.527344 324.210938 " fill-opacity="1" fill-rule="nonzero"/></svg>