<svg xmlns="http://www.w3.org/2000/svg" xmlns:xlink="http://www.w3.org/1999/xlink" width="700" zoomAndPan="magnify" viewBox="0 0 525 525.000007" height="700" preserveAspectRatio="xMidYMid meet" version="1.0"><defs><clipPath id="78675a8571"><path d="M 0.5 0 L 524.5 0 L 524.5 524 L 0.5 524 Z M 0.5 0 " clip-rule="nonzero"/></clipPath><clipPath id="a01d52337f"><path d="M 102.609375 65.71875 L 399 65.71875 L 399 449 L 102.609375 449 Z M 102.609375 65.71875 " clip-rule="nonzero"/></clipPath></defs><g clip-path="url(#78675a8571)"><path fill="#ffffff" d="M 0.5 0 L 524.5 0 L 524.5 524 L 0.5 524 Z M 0.5 0 " fill-opacity="1" fill-rule="nonzero"/><path fill="#ffffff" d="M 0.5 0 L 524.5 0 L 524.5 524 L 0.5 524 Z M 0.5 0 " fill-opacity="1" fill-rule="nonzero"/></g><g clip-path="url(#a01d52337f)"><path fill="#000000" d="M 394.441406 343.398438 C 404.960938 367.910156 393.515625 396.578125 369.042969 407.113281 L 283.152344 444.042969 C 250.824219 457.953125 214.433594 433.441406 215.566406 398.097656 L 141.691406 398.097656 C 120.191406 398.097656 102.621094 380.523438 102.621094 359.039062 L 102.621094 227.007812 C 102.621094 187.523438 125.679688 151.988281 160.679688 135.238281 L 160.679688 110.066406 L 150.617188 110.066406 C 148.867188 110.066406 147.304688 109.359375 146.144531 108.222656 L 146.171875 108.199219 C 145.011719 107.0625 144.300781 105.476562 144.300781 103.75 L 144.300781 72.054688 C 144.300781 68.597656 147.164062 65.734375 150.617188 65.734375 L 257.773438 65.734375 C 261.253906 65.734375 264.089844 68.574219 264.089844 72.054688 L 264.089844 103.75 C 264.089844 107.230469 261.277344 110.066406 257.773438 110.066406 L 247.722656 110.066406 L 247.722656 135.238281 C 282.71875 151.988281 305.78125 187.523438 305.78125 227.007812 L 305.78125 266.917969 C 332.761719 267.535156 355.042969 288.117188 357.949219 314.773438 C 373.816406 317.496094 387.789062 327.953125 394.441406 343.398438 Z M 287.785156 336.464844 L 307.882812 327.800781 L 266.519531 292.859375 C 255.023438 308.566406 254.386719 329.855469 265.007812 346.253906 Z M 314.714844 324.878906 L 330.726562 317.996094 C 337.375 315.132812 344.324219 313.90625 351.15625 314.089844 C 347.945312 291.023438 328.121094 273.5625 304.519531 273.5625 C 291.320312 273.5625 279.382812 279.003906 270.824219 287.785156 Z M 388.691406 378.035156 C 398.863281 352.503906 382.351562 324.355469 354.402344 321 C 347.453125 320.214844 340.210938 321.167969 333.378906 324.121094 L 293.480469 341.273438 L 326.519531 418.136719 L 366.390625 400.984375 C 376.960938 396.4375 384.71875 387.992188 388.691406 378.035156 Z M 216.21875 391.421875 C 218.964844 375.546875 229.390625 361.570312 244.835938 354.917969 L 258.808594 348.910156 C 257.457031 346.753906 256.28125 344.511719 255.261719 342.164062 L 128.925781 342.164062 C 127.082031 342.164062 125.589844 340.652344 125.589844 338.800781 L 125.589844 216.242188 C 125.589844 214.425781 127.082031 212.90625 128.925781 212.90625 L 279.457031 212.90625 C 281.300781 212.90625 282.820312 214.414062 282.820312 216.242188 L 282.820312 271.460938 C 287.882812 269.238281 293.367188 267.746094 299.113281 267.179688 L 299.113281 227.007812 C 299.113281 208.105469 293.53125 190.453125 283.929688 175.625 C 274.042969 160.367188 259.878906 148.082031 243.183594 140.496094 C 241.957031 139.996094 241.054688 138.792969 241.054688 137.375 L 241.054688 110.066406 L 167.335938 110.066406 L 167.335938 137.367188 C 167.335938 138.644531 166.601562 139.855469 165.375 140.421875 C 131.679688 155.636719 109.304688 189.371094 109.304688 227.007812 L 109.304688 359.039062 C 109.304688 376.832031 123.871094 391.429688 141.683594 391.429688 L 216.21875 391.429688 Z M 280.5 437.90625 L 320.398438 420.757812 L 287.359375 343.890625 L 247.488281 361.042969 C 236.917969 365.582031 229.160156 374.054688 225.1875 383.992188 C 216.652344 405.425781 226.964844 429.703125 248.503906 438.308594 C 258.457031 442.265625 269.921875 442.480469 280.5 437.90625 Z M 252.851562 335.472656 C 246.160156 312.09375 255.996094 287.566406 276.121094 275.007812 L 276.121094 219.597656 L 132.265625 219.597656 L 132.265625 335.472656 Z M 159.101562 82.269531 C 159.101562 77.871094 165.769531 77.871094 165.769531 82.269531 L 165.769531 93.550781 C 165.769531 97.925781 159.101562 97.925781 159.101562 93.550781 Z M 242.605469 82.269531 C 242.605469 77.871094 249.296875 77.871094 249.296875 82.269531 L 249.296875 93.550781 C 249.296875 97.925781 242.605469 97.925781 242.605469 93.550781 Z M 228.707031 82.269531 C 228.707031 77.871094 235.375 77.871094 235.375 82.269531 L 235.375 93.550781 C 235.375 97.925781 228.707031 97.925781 228.707031 93.550781 Z M 214.773438 82.269531 C 214.773438 77.871094 221.441406 77.871094 221.441406 82.269531 L 221.441406 93.550781 C 221.441406 97.925781 214.773438 97.925781 214.773438 93.550781 Z M 200.867188 82.269531 C 200.867188 77.871094 207.535156 77.871094 207.535156 82.269531 L 207.535156 93.550781 C 207.535156 97.925781 200.867188 97.925781 200.867188 93.550781 Z M 186.941406 82.269531 C 186.941406 77.871094 193.609375 77.871094 193.609375 82.269531 L 193.609375 93.550781 C 193.609375 97.925781 186.941406 97.925781 186.941406 93.550781 Z M 173.011719 82.269531 C 173.011719 77.871094 179.703125 77.871094 179.703125 82.269531 L 179.703125 93.550781 C 179.703125 97.925781 173.011719 97.925781 173.011719 93.550781 Z M 150.96875 103.398438 L 257.414062 103.398438 L 257.414062 72.402344 L 150.96875 72.402344 Z M 194.910156 246.832031 L 213.472656 246.832031 C 215.316406 246.832031 216.8125 248.324219 216.8125 250.167969 L 216.8125 264.90625 L 231.542969 264.90625 C 233.386719 264.90625 234.882812 266.402344 234.882812 268.246094 L 234.882812 286.839844 C 234.882812 288.683594 233.386719 290.179688 231.542969 290.179688 L 216.8125 290.179688 L 216.8125 304.917969 C 216.8125 306.761719 215.316406 308.253906 213.472656 308.253906 L 194.910156 308.253906 C 193.066406 308.253906 191.574219 306.761719 191.574219 304.917969 L 191.574219 290.179688 L 176.839844 290.179688 C 174.996094 290.179688 173.503906 288.683594 173.503906 286.839844 L 173.503906 268.246094 C 173.503906 266.402344 174.996094 264.90625 176.839844 264.90625 L 191.574219 264.90625 L 191.574219 250.167969 C 191.574219 248.324219 193.066406 246.832031 194.910156 246.832031 Z M 210.144531 253.5 L 198.246094 253.5 L 198.246094 268.238281 C 198.246094 270.082031 196.753906 271.574219 194.910156 271.574219 L 180.175781 271.574219 L 180.175781 283.476562 L 194.910156 283.476562 C 196.753906 283.476562 198.246094 284.988281 198.246094 286.839844 L 198.246094 301.578125 L 210.144531 301.578125 L 210.144531 286.839844 C 210.144531 284.996094 211.636719 283.476562 213.480469 283.476562 L 228.214844 283.476562 L 228.214844 271.574219 L 213.480469 271.574219 C 211.636719 271.574219 210.144531 270.082031 210.144531 268.238281 Z M 204.203125 225.964844 C 232.679688 225.964844 255.765625 249.058594 255.765625 277.542969 C 255.765625 306.027344 232.679688 329.121094 204.203125 329.121094 C 175.730469 329.121094 152.644531 306.027344 152.644531 277.542969 C 152.644531 249.058594 175.730469 225.964844 204.203125 225.964844 Z M 235.941406 245.789062 C 218.421875 228.261719 189.988281 228.261719 172.46875 245.789062 C 154.949219 263.3125 154.949219 291.757812 172.46875 309.28125 C 189.988281 326.808594 218.421875 326.808594 235.941406 309.28125 C 253.46875 291.757812 253.46875 263.320312 235.941406 245.789062 Z M 235.941406 245.789062 " fill-opacity="1" fill-rule="nonzero"/></g></svg>