<svg xmlns="http://www.w3.org/2000/svg" xmlns:xlink="http://www.w3.org/1999/xlink" width="700" zoomAndPan="magnify" viewBox="0 0 525 525.000007" height="700" preserveAspectRatio="xMidYMid meet" version="1.0"><defs><clipPath id="2f489d3e33"><path d="M 0.5 0 L 524.5 0 L 524.5 524 L 0.5 524 Z M 0.5 0 " clip-rule="nonzero"/></clipPath><clipPath id="dd3ae8e379"><path d="M 77.070312 61.710938 L 468 61.710938 L 468 471.929688 L 77.070312 471.929688 Z M 77.070312 61.710938 " clip-rule="nonzero"/></clipPath></defs><g clip-path="url(#2f489d3e33)"><path fill="#ffffff" d="M 0.5 0 L 524.5 0 L 524.5 524 L 0.5 524 Z M 0.5 0 " fill-opacity="1" fill-rule="nonzero"/><path fill="#ffffff" d="M 0.5 0 L 524.5 0 L 524.5 524 L 0.5 524 Z M 0.5 0 " fill-opacity="1" fill-rule="nonzero"/></g><path fill="#000000" d="M 186.96875 200.953125 C 182.925781 200.953125 179.648438 204.230469 179.648438 208.277344 L 179.648438 222.925781 L 165.003906 222.925781 C 160.960938 222.925781 157.679688 226.203125 157.679688 230.246094 C 157.679688 234.292969 160.960938 237.570312 165.003906 237.570312 L 186.96875 237.570312 C 191.011719 237.570312 194.289062 234.292969 194.289062 230.246094 L 194.289062 208.277344 C 194.289062 204.230469 191.011719 200.953125 186.96875 200.953125 Z M 186.96875 200.953125 " fill-opacity="1" fill-rule="nonzero"/><path fill="#000000" d="M 186.96875 252.21875 L 157.679688 252.21875 C 153.636719 252.21875 150.359375 255.5 150.359375 259.542969 L 150.359375 288.835938 C 150.359375 292.882812 153.636719 296.160156 157.679688 296.160156 L 186.96875 296.160156 C 191.011719 296.160156 194.289062 292.882812 194.289062 288.835938 L 194.289062 259.542969 C 194.289062 255.5 191.011719 252.21875 186.96875 252.21875 Z M 179.648438 281.511719 L 165.003906 281.511719 L 165.003906 266.867188 L 179.648438 266.867188 Z M 179.648438 281.511719 " fill-opacity="1" fill-rule="nonzero"/><path fill="#000000" d="M 186.96875 310.808594 L 157.679688 310.808594 C 153.636719 310.808594 150.359375 314.085938 150.359375 318.132812 L 150.359375 347.425781 C 150.359375 351.472656 153.636719 354.75 157.679688 354.75 L 186.96875 354.75 C 191.011719 354.75 194.289062 351.472656 194.289062 347.425781 L 194.289062 318.132812 C 194.289062 314.085938 191.011719 310.808594 186.96875 310.808594 Z M 179.648438 340.101562 L 165.003906 340.101562 L 165.003906 325.457031 L 179.648438 325.457031 Z M 179.648438 340.101562 " fill-opacity="1" fill-rule="nonzero"/><path fill="#000000" d="M 186.96875 369.398438 L 157.679688 369.398438 C 153.636719 369.398438 150.359375 372.675781 150.359375 376.722656 L 150.359375 406.015625 C 150.359375 410.0625 153.636719 413.339844 157.679688 413.339844 L 186.96875 413.339844 C 191.011719 413.339844 194.289062 410.0625 194.289062 406.015625 L 194.289062 376.722656 C 194.289062 372.675781 191.011719 369.398438 186.96875 369.398438 Z M 179.648438 398.691406 L 165.003906 398.691406 L 165.003906 384.046875 L 179.648438 384.046875 Z M 179.648438 398.691406 " fill-opacity="1" fill-rule="nonzero"/><path fill="#000000" d="M 289.472656 208.277344 L 223.578125 208.277344 C 219.535156 208.277344 216.253906 211.554688 216.253906 215.601562 C 216.253906 219.644531 219.535156 222.925781 223.578125 222.925781 L 289.472656 222.925781 C 293.515625 222.925781 296.792969 219.644531 296.792969 215.601562 C 296.792969 211.554688 293.515625 208.277344 289.472656 208.277344 Z M 289.472656 208.277344 " fill-opacity="1" fill-rule="nonzero"/><path fill="#000000" d="M 289.472656 266.867188 L 223.578125 266.867188 C 219.535156 266.867188 216.253906 270.144531 216.253906 274.191406 C 216.253906 278.234375 219.535156 281.511719 223.578125 281.511719 L 289.472656 281.511719 C 293.515625 281.511719 296.792969 278.234375 296.792969 274.191406 C 296.792969 270.144531 293.515625 266.867188 289.472656 266.867188 Z M 289.472656 266.867188 " fill-opacity="1" fill-rule="nonzero"/><path fill="#000000" d="M 274.828125 325.457031 L 223.578125 325.457031 C 219.535156 325.457031 216.253906 328.734375 216.253906 332.78125 C 216.253906 336.824219 219.535156 340.101562 223.578125 340.101562 L 274.828125 340.101562 C 278.871094 340.101562 282.152344 336.824219 282.152344 332.78125 C 282.152344 328.734375 278.871094 325.457031 274.828125 325.457031 Z M 274.828125 325.457031 " fill-opacity="1" fill-rule="nonzero"/><path fill="#000000" d="M 274.828125 384.046875 L 223.578125 384.046875 C 219.535156 384.046875 216.253906 387.324219 216.253906 391.367188 C 216.253906 395.414062 219.535156 398.691406 223.578125 398.691406 L 274.828125 398.691406 C 278.871094 398.691406 282.152344 395.414062 282.152344 391.367188 C 282.152344 387.324219 278.871094 384.046875 274.828125 384.046875 Z M 274.828125 384.046875 " fill-opacity="1" fill-rule="nonzero"/><g clip-path="url(#dd3ae8e379)"><path fill="#000000" d="M 462.503906 336.367188 C 458.328125 321.054688 446.378906 309.402344 431.640625 305.195312 C 439.914062 300.578125 446.765625 293.277344 450.710938 283.882812 L 456.585938 269.902344 C 458.15625 266.171875 456.402344 261.878906 452.675781 260.3125 L 438.695312 254.433594 C 427.878906 249.882812 415.9375 249.820312 405.074219 254.257812 C 394.210938 258.695312 385.722656 267.097656 381.175781 277.917969 L 380.738281 278.957031 C 378.375 275.421875 375.65625 272.085938 372.585938 269.011719 C 371.832031 268.257812 370.949219 267.707031 370.011719 267.351562 L 370.011719 135.039062 C 370.011719 118.886719 356.875 105.746094 340.726562 105.746094 L 258.355469 105.746094 C 255.328125 105.746094 252.867188 103.28125 252.867188 100.253906 L 252.867188 91.59375 C 252.867188 83.609375 249.578125 75.808594 243.851562 70.183594 C 238.195312 64.636719 230.8125 61.699219 223.015625 61.808594 C 207.175781 62.109375 194.289062 75.25 194.289062 91.097656 L 194.289062 100.253906 C 194.289062 103.28125 191.828125 105.746094 188.800781 105.746094 L 106.429688 105.746094 C 90.28125 105.746094 77.140625 118.886719 77.140625 135.039062 L 77.140625 442.636719 C 77.140625 458.789062 90.28125 471.929688 106.429688 471.929688 L 340.726562 471.929688 C 343.007812 471.929688 345.273438 471.652344 347.476562 471.132812 C 349.941406 471.652344 352.46875 471.929688 355.03125 471.929688 C 364.96875 471.929688 374.308594 468.058594 381.332031 461.035156 L 382.046875 460.316406 L 382.765625 461.035156 C 389.789062 468.058594 399.128906 471.929688 409.066406 471.929688 C 422.054688 471.929688 434.277344 465.007812 440.960938 453.867188 L 447.890625 442.308594 C 466.898438 410.628906 472.222656 372.011719 462.503906 336.367188 Z M 394.675781 283.59375 C 397.707031 276.378906 403.363281 270.777344 410.605469 267.820312 C 417.847656 264.863281 425.808594 264.90625 433.019531 267.9375 L 440.25 270.976562 L 437.210938 278.207031 C 434.179688 285.421875 428.523438 291.023438 421.28125 293.980469 C 414.039062 296.933594 406.078125 296.894531 398.863281 293.863281 L 391.636719 290.824219 Z M 393.191406 307.367188 C 394.746094 308.019531 396.320312 308.566406 397.902344 309.03125 C 395.734375 310.230469 393.660156 311.617188 391.699219 313.183594 C 391.628906 310.945312 391.445312 308.714844 391.148438 306.507812 Z M 377.019531 317.390625 L 376.183594 316.554688 C 374.265625 314.636719 372.195312 312.921875 370.011719 311.40625 L 370.011719 289.398438 C 375.007812 297.820312 377.445312 307.53125 377.019531 317.390625 Z M 355.367188 135.039062 L 355.367188 304.78125 C 351.898438 303.929688 348.300781 303.484375 344.636719 303.484375 C 343.320312 303.484375 342.015625 303.546875 340.726562 303.660156 L 340.726562 142.363281 C 340.726562 138.320312 337.445312 135.039062 333.402344 135.039062 L 296.792969 135.039062 C 296.792969 129.707031 295.355469 124.703125 292.855469 120.390625 L 340.726562 120.390625 C 348.800781 120.390625 355.367188 126.964844 355.367188 135.039062 Z M 308.753906 427.988281 L 121.074219 427.988281 L 121.074219 149.6875 L 154.300781 149.6875 C 159.371094 158.433594 168.832031 164.335938 179.648438 164.335938 L 267.507812 164.335938 C 278.324219 164.335938 287.78125 158.433594 292.855469 149.6875 L 326.082031 149.6875 L 326.082031 307.554688 C 314.335938 312.953125 305.148438 323.332031 301.59375 336.367188 C 293.296875 366.800781 295.972656 399.390625 308.753906 427.988281 Z M 208.933594 100.253906 L 208.933594 91.097656 C 208.933594 83.171875 215.375 76.601562 223.292969 76.453125 C 227.09375 76.359375 230.765625 77.867188 233.59375 80.640625 C 236.535156 83.527344 238.222656 87.519531 238.222656 91.59375 L 238.222656 100.253906 C 238.222656 111.359375 247.253906 120.390625 258.355469 120.390625 L 267.507812 120.390625 C 275.582031 120.390625 282.152344 126.964844 282.152344 135.039062 C 282.152344 143.117188 275.582031 149.6875 267.507812 149.6875 L 179.648438 149.6875 C 171.574219 149.6875 165.003906 143.117188 165.003906 135.039062 C 165.003906 126.964844 171.574219 120.390625 179.648438 120.390625 L 188.800781 120.390625 C 199.902344 120.390625 208.933594 111.359375 208.933594 100.253906 Z M 91.785156 442.636719 L 91.785156 135.039062 C 91.785156 126.964844 98.355469 120.390625 106.429688 120.390625 L 154.300781 120.390625 C 151.800781 124.703125 150.359375 129.707031 150.359375 135.039062 L 113.75 135.039062 C 109.707031 135.039062 106.429688 138.320312 106.429688 142.363281 L 106.429688 435.3125 C 106.429688 439.355469 109.707031 442.636719 113.75 442.636719 L 316.398438 442.636719 L 323.136719 453.867188 C 323.851562 455.058594 324.644531 456.191406 325.476562 457.28125 L 106.429688 457.28125 C 98.355469 457.28125 91.785156 450.710938 91.785156 442.636719 Z M 435.335938 434.773438 L 428.402344 446.332031 C 424.351562 453.085938 416.941406 457.28125 409.066406 457.28125 C 403.042969 457.28125 397.378906 454.9375 393.121094 450.675781 L 387.226562 444.78125 C 385.855469 443.40625 383.992188 442.636719 382.050781 442.636719 C 380.105469 442.636719 378.246094 443.40625 376.871094 444.78125 L 370.976562 450.675781 C 366.71875 454.9375 361.054688 457.28125 355.03125 457.28125 C 347.15625 457.28125 339.746094 453.085938 335.695312 446.332031 L 328.761719 434.773438 C 311.800781 406.5 307.046875 372.035156 315.722656 340.222656 C 319.269531 327.214844 331.160156 318.132812 344.636719 318.132812 C 352.640625 318.132812 360.167969 321.25 365.828125 326.914062 L 376.871094 337.957031 C 379.730469 340.816406 384.363281 340.816406 387.226562 337.957031 L 398.265625 326.914062 C 403.929688 321.25 411.453125 318.132812 419.460938 318.132812 C 432.9375 318.132812 444.828125 327.214844 448.375 340.222656 C 457.050781 372.035156 452.296875 406.5 435.335938 434.773438 Z M 435.335938 434.773438 " fill-opacity="1" fill-rule="nonzero"/></g><path fill="#000000" d="M 430.140625 398.953125 C 426.242188 397.886719 422.214844 400.175781 421.140625 404.078125 C 420.507812 406.394531 419.796875 408.734375 419.03125 411.023438 C 417.753906 414.863281 419.828125 419.011719 423.664062 420.289062 C 424.433594 420.542969 425.214844 420.664062 425.980469 420.664062 C 429.046875 420.664062 431.902344 418.726562 432.925781 415.65625 C 433.773438 413.117188 434.558594 410.523438 435.265625 407.957031 C 436.335938 404.054688 434.042969 400.023438 430.140625 398.953125 Z M 430.140625 398.953125 " fill-opacity="1" fill-rule="nonzero"/><path fill="#000000" d="M 433.300781 354.75 C 429.257812 354.75 425.980469 358.03125 425.980469 362.074219 L 425.980469 368.210938 C 425.980469 373.210938 425.695312 378.265625 425.144531 383.234375 C 424.695312 387.253906 427.589844 390.875 431.605469 391.324219 C 431.882812 391.355469 432.15625 391.371094 432.425781 391.371094 C 436.109375 391.371094 439.277344 388.601562 439.695312 384.859375 C 440.308594 379.351562 440.621094 373.753906 440.621094 368.210938 L 440.621094 362.074219 C 440.621094 358.03125 437.34375 354.75 433.300781 354.75 Z M 433.300781 354.75 " fill-opacity="1" fill-rule="nonzero"/><path fill="#000000" d="M 181.792969 181.125 L 157.679688 205.242188 L 155.535156 203.097656 C 152.675781 200.238281 148.042969 200.238281 145.183594 203.097656 C 142.324219 205.957031 142.324219 210.59375 145.183594 213.457031 L 152.503906 220.777344 C 153.933594 222.210938 155.808594 222.925781 157.679688 222.925781 C 159.554688 222.925781 161.429688 222.210938 162.859375 220.777344 L 192.144531 191.484375 C 195.003906 188.625 195.003906 183.988281 192.144531 181.125 C 189.285156 178.269531 184.652344 178.269531 181.792969 181.125 Z M 181.792969 181.125 " fill-opacity="1" fill-rule="nonzero"/></svg>