<svg xmlns="http://www.w3.org/2000/svg" xmlns:xlink="http://www.w3.org/1999/xlink" width="700" zoomAndPan="magnify" viewBox="0 0 525 525.000007" height="700" preserveAspectRatio="xMidYMid meet" version="1.0"><defs><clipPath id="31fa3ee356"><path d="M 0.5 0 L 524.5 0 L 524.5 524 L 0.5 524 Z M 0.5 0 " clip-rule="nonzero"/></clipPath><clipPath id="67baeec611"><path d="M 98.53125 102.980469 L 426.40625 102.980469 L 426.40625 430.855469 L 98.53125 430.855469 Z M 98.53125 102.980469 " clip-rule="nonzero"/></clipPath></defs><g clip-path="url(#31fa3ee356)"><path fill="#ffffff" d="M 0.5 0 L 524.5 0 L 524.5 524 L 0.5 524 Z M 0.5 0 " fill-opacity="1" fill-rule="nonzero"/><path fill="#ffffff" d="M 0.5 0 L 524.5 0 L 524.5 524 L 0.5 524 Z M 0.5 0 " fill-opacity="1" fill-rule="nonzero"/></g><g clip-path="url(#67baeec611)"><path fill="#000000" d="M 355.484375 173.902344 C 352.40625 150.945312 350.910156 130.90625 368.609375 113.171875 L 358.472656 102.980469 C 337.246094 124.207031 337.785156 148.929688 340.683594 171.851562 C 324.804688 169.816406 308.671875 168.949219 293.132812 175.269531 L 292.933594 175.089844 L 288.269531 177.484375 C 285.25 179.078125 282.367188 180.886719 279.617188 182.910156 C 276.871094 184.933594 274.285156 187.152344 271.871094 189.5625 C 269.453125 191.972656 267.230469 194.550781 265.199219 197.292969 C 263.167969 200.039062 261.351562 202.917969 259.75 205.933594 L 257.339844 210.597656 L 257.535156 210.796875 C 251.164062 226.371094 252.027344 242.539062 254.0625 258.472656 C 238.054688 256.421875 221.8125 255.554688 206.167969 262.074219 L 205.96875 261.875 L 201.269531 264.324219 C 195.304688 267.488281 189.945312 271.464844 185.191406 276.261719 C 183.28125 278.152344 181.480469 280.136719 179.789062 282.222656 C 177.105469 285.582031 174.792969 289.183594 172.855469 293.023438 L 170.550781 297.617188 L 170.734375 297.8125 C 164.503906 313.28125 165.332031 329.324219 167.402344 345.132812 C 144.515625 342.234375 119.777344 341.675781 98.53125 362.921875 L 108.722656 373.058594 C 126.457031 355.324219 146.535156 356.726562 169.453125 359.898438 C 172.625 382.851562 174.046875 402.894531 156.292969 420.644531 L 166.484375 430.820312 C 187.730469 409.574219 187.152344 384.832031 184.253906 361.96875 C 200.0625 364.054688 216.105469 364.882812 231.589844 358.652344 L 231.769531 358.851562 L 236.414062 356.492188 C 237.425781 355.972656 238.433594 355.429688 239.40625 354.855469 C 244.441406 351.921875 249.011719 348.378906 253.105469 344.230469 C 257.910156 339.484375 261.886719 334.125 265.042969 328.152344 L 267.511719 323.472656 L 267.3125 323.273438 C 273.792969 307.628906 272.929688 291.367188 270.914062 275.363281 C 286.847656 277.398438 303.015625 278.261719 318.589844 271.886719 L 318.808594 272.085938 L 323.488281 269.671875 C 329.507812 266.472656 334.910156 262.445312 339.695312 257.589844 C 344.605469 252.746094 348.65625 247.265625 351.847656 241.152344 L 354.242188 236.46875 L 354.207031 236.21875 C 360.527344 220.714844 359.609375 204.582031 357.628906 188.667969 C 380.511719 191.566406 405.25 192.140625 426.496094 170.894531 L 416.324219 160.703125 C 398.5 178.476562 378.476562 177.070312 355.484375 173.902344 Z M 284.742188 197.308594 L 285.425781 196.714844 C 286.34375 195.941406 287.226562 195.183594 288.199219 194.480469 C 288.917969 193.960938 289.65625 193.472656 290.394531 193.007812 L 336.453125 239.0625 C 335.96875 239.785156 335.5 240.523438 334.957031 241.242188 C 334.273438 242.179688 333.519531 243.042969 332.742188 243.996094 L 332.148438 244.699219 C 331.339844 245.617188 330.492188 246.5 329.609375 247.417969 C 328.730469 248.335938 327.808594 249.21875 326.929688 249.921875 L 326.242188 250.515625 C 325.324219 251.289062 324.445312 252.046875 323.453125 252.746094 C 322.769531 253.25 322.066406 253.71875 321.363281 254.167969 L 275.199219 208.113281 C 275.667969 207.410156 276.136719 206.691406 276.65625 205.988281 C 277.359375 205.035156 278.117188 204.097656 278.910156 203.179688 L 279.484375 202.511719 C 280.292969 201.613281 281.105469 200.710938 281.988281 199.828125 C 282.871094 198.949219 283.824219 198.066406 284.742188 197.253906 Z M 198.011719 283.988281 L 198.675781 283.390625 C 199.578125 282.636719 200.476562 281.898438 201.394531 281.214844 L 201.558594 281.085938 C 202.1875 280.636719 202.835938 280.207031 203.484375 279.773438 L 249.613281 325.921875 C 249.179688 326.570312 248.75 327.21875 248.28125 327.863281 L 248.28125 327.992188 C 247.597656 328.910156 246.859375 329.792969 246.085938 330.710938 L 245.507812 331.375 C 244.714844 332.277344 243.90625 333.175781 243.023438 334.039062 C 242.140625 334.941406 241.222656 335.839844 240.304688 336.578125 L 239.601562 337.191406 C 238.71875 337.949219 237.800781 338.6875 236.902344 339.351562 L 236.757812 339.480469 C 236 340.019531 235.226562 340.523438 234.453125 341.027344 L 188.359375 295.058594 C 188.863281 294.285156 189.351562 293.511719 189.910156 292.773438 L 190.015625 292.628906 C 190.699219 291.710938 191.421875 290.828125 192.175781 289.910156 L 192.789062 289.207031 C 193.617188 288.289062 194.445312 287.40625 195.363281 286.453125 C 196.28125 285.5 197.128906 284.832031 198.011719 283.988281 Z M 182.203125 347.183594 C 180.402344 333.824219 179.085938 321.042969 182.203125 309.195312 L 220.265625 347.257812 C 208.363281 350.300781 195.5625 349.039062 182.203125 347.183594 Z M 217.457031 273.363281 C 229.5 270.121094 242.5 271.402344 256.09375 273.363281 C 257.894531 286.976562 259.265625 299.976562 256.003906 312.003906 Z M 268.84375 260.527344 C 267.042969 247.023438 265.710938 234.09375 268.84375 222.136719 L 307.195312 260.507812 C 295.273438 263.675781 282.347656 262.417969 268.84375 260.542969 Z M 304.492188 186.703125 C 316.394531 183.589844 329.269531 184.902344 342.738281 186.703125 C 344.539062 200.171875 345.871094 213.027344 342.738281 224.945312 Z M 304.492188 186.703125 " fill-opacity="1" fill-rule="nonzero"/></g></svg>